<svg width="28" height="28" viewBox="0 0 28 28" fill="none" xmlns="http://www.w3.org/2000/svg">
<path d="M9.9484 23.6755C8.68228 23.1279 7.56338 22.3682 6.59759 21.4024C5.6318 20.4366 4.87213 19.3177 4.32445 18.0516C3.77678 16.7855 3.5 15.4369 3.5 14C3.5 12.5631 3.77678 11.2145 4.32445 9.9484C4.87213 8.68228 5.6318 7.56338 6.5917 6.59759C7.5516 5.6318 8.6705 4.87213 9.93662 4.32445C11.2027 3.77678 12.5513 3.5 13.9882 3.5C15.4251 3.5 16.7737 3.77678 18.0457 4.32445C19.3177 4.87213 20.4366 5.6318 21.4024 6.59759C22.3682 7.56338 23.1279 8.68228 23.6755 9.9484C24.2232 11.2145 24.5 12.5631 24.5 14C24.5 15.4369 24.2232 16.7855 23.6755 18.0516C23.1279 19.3177 22.3682 20.4366 21.4024 21.4024C20.4366 22.3682 19.3177 23.1279 18.0516 23.6755C16.7855 24.2232 15.4369 24.5 14 24.5C12.5631 24.5 11.2145 24.2232 9.9484 23.6755ZM17.4097 22.0679C18.4697 21.6144 19.4002 20.9902 20.2011 20.1893C21.002 19.3884 21.6262 18.4638 22.0738 17.4038C22.5213 16.3438 22.751 15.2131 22.751 13.9941C22.751 12.7751 22.5272 11.6444 22.0738 10.5844C21.6203 9.5244 20.9902 8.59983 20.1893 7.79305C19.3884 6.98626 18.4579 6.36203 17.3979 5.91447C16.3379 5.46691 15.2072 5.23724 13.9882 5.23724C12.7692 5.23724 11.6385 5.46102 10.5785 5.91447C9.51851 6.36792 8.59394 6.99215 7.79893 7.79305C7.00393 8.59394 6.3797 9.5244 5.93214 10.5844C5.48458 11.6444 5.25491 12.7751 5.25491 13.9941C5.25491 15.2131 5.47869 16.3438 5.93214 17.4038C6.38559 18.4638 7.00393 19.3884 7.80482 20.1893C8.60572 20.9902 9.53029 21.6144 10.5903 22.0679C11.6503 22.5213 12.781 22.7451 14 22.7451C15.219 22.7451 16.3497 22.5213 17.4156 22.0679H17.4097ZM13.6408 19.7417C13.5466 19.6534 13.4994 19.5356 13.4994 19.3943V18.6523C12.8045 18.5816 12.198 18.3696 11.6798 18.0104C11.1615 17.6511 10.8259 17.1741 10.6786 16.5735C10.6669 16.5205 10.6551 16.4675 10.6433 16.4145C10.6315 16.3615 10.6256 16.3085 10.6256 16.2555C10.6256 16.0788 10.6845 15.9316 10.7964 15.8197C10.9083 15.7078 11.0496 15.6489 11.2263 15.6489C11.3794 15.6489 11.5031 15.6901 11.615 15.7785C11.7269 15.8668 11.8034 15.9905 11.8682 16.1671C11.9506 16.5087 12.1273 16.8031 12.3982 17.0446C12.6691 17.286 13.0401 17.4391 13.5053 17.5098V14.4652L13.4347 14.4476C12.5749 14.2473 11.9271 13.947 11.4913 13.5407C11.0555 13.1343 10.8317 12.6043 10.8317 11.9565C10.8317 11.2557 11.085 10.6786 11.5855 10.2193C12.0861 9.75996 12.728 9.48906 13.5112 9.40073V8.68817C13.5112 8.36427 13.6702 8.20527 13.9941 8.20527C14.1296 8.20527 14.2473 8.25238 14.3416 8.34072C14.4358 8.42905 14.4829 8.54683 14.4829 8.68817V9.40073C15.1425 9.47729 15.7137 9.69518 16.1966 10.0544C16.6795 10.4136 16.9916 10.873 17.127 11.4265C17.1388 11.4795 17.1506 11.5325 17.1624 11.5855C17.1741 11.6385 17.18 11.6915 17.18 11.7445C17.18 11.9212 17.1211 12.0684 17.0093 12.1803C16.8974 12.2922 16.7501 12.3511 16.5735 12.3511C16.2731 12.3511 16.0611 12.1803 15.9434 11.8446C15.8432 11.5031 15.6666 11.2204 15.4133 11.0084C15.1601 10.7964 14.8539 10.6492 14.4829 10.5785V13.4523L14.6242 13.4818C15.5193 13.6408 16.1907 13.9293 16.6441 14.3592C17.0976 14.7891 17.3214 15.3486 17.3214 16.0494C17.3214 16.8267 17.0505 17.4391 16.5028 17.8867C15.9551 18.3343 15.2838 18.6052 14.477 18.6817V19.4002C14.477 19.5415 14.4299 19.6593 14.3357 19.7476C14.2414 19.836 14.1296 19.8831 13.9882 19.8831C13.8469 19.8831 13.735 19.836 13.6408 19.7476V19.7417ZM13.4994 10.5667C13.0578 10.6433 12.7162 10.8023 12.463 11.0379C12.2098 11.2734 12.0861 11.5561 12.0861 11.8741C12.0861 12.1921 12.1921 12.4335 12.41 12.6397C12.6279 12.8458 12.9635 13.0224 13.4229 13.1579L13.4936 13.1755V10.5609L13.4994 10.5667ZM14.4652 17.498C14.9952 17.4391 15.3839 17.2801 15.643 17.0269C15.9021 16.7737 16.0317 16.4675 16.0317 16.1082C16.0317 15.7785 15.9316 15.5017 15.7314 15.2838C15.5311 15.0659 15.1837 14.8833 14.689 14.7479L14.4652 14.6949V17.498Z" fill="#757575"/>
</svg>
