<svg width="28" height="28" viewBox="0 0 28 28" fill="none" xmlns="http://www.w3.org/2000/svg">
<path d="M23.6814 9.9484C23.1337 8.68228 22.3741 7.56338 21.4083 6.59759C20.4425 5.6318 19.3236 4.87213 18.0516 4.32445C16.7796 3.77678 15.431 3.5 13.9941 3.5C12.5572 3.5 11.2086 3.77678 9.94248 4.32445C8.67636 4.87213 7.56335 5.6318 6.59756 6.59759C5.63177 7.56338 4.87798 8.68228 4.33031 9.9484C3.78264 11.2145 3.50586 12.5631 3.50586 14C3.50586 15.4369 3.78264 16.7855 4.33031 18.0516C4.87798 19.3177 5.63766 20.4366 6.60345 21.4024C7.56924 22.3682 8.68814 23.1279 9.95426 23.6755C11.2204 24.2232 12.569 24.5 14.0059 24.5C15.4428 24.5 16.7913 24.2232 18.0575 23.6755C19.3236 23.1279 20.4425 22.3682 21.4083 21.4024C22.3741 20.4366 23.1337 19.3177 23.6814 18.0516C24.2291 16.7855 24.5059 15.4369 24.5059 14C24.5059 12.5631 24.2291 11.2145 23.6814 9.9484ZM22.0796 17.4097C21.6909 18.3225 21.1668 19.1293 20.519 19.8477C20.3306 19.6239 20.095 19.4002 19.8124 19.1823C19.1822 18.6935 18.3755 18.293 17.3802 17.975C16.3909 17.657 15.2602 17.5039 14 17.5039C12.7397 17.5039 11.6208 17.6629 10.6256 17.975C9.63037 18.2872 8.82358 18.6935 8.19346 19.1823C7.91079 19.4002 7.68113 19.6239 7.48679 19.8418C6.84489 19.1234 6.32078 18.3166 5.93211 17.4097C5.48455 16.3556 5.25488 15.219 5.25488 14C5.25488 12.781 5.47866 11.6503 5.93211 10.5903C6.37967 9.53617 7.0039 8.60572 7.7989 7.79893C8.59391 6.99215 9.52437 6.36792 10.5785 5.92036C11.6326 5.4728 12.7692 5.24313 13.9882 5.24313C15.2072 5.24313 16.3379 5.46691 17.3979 5.92036C18.452 6.36792 19.3825 6.99804 20.1893 7.79893C20.9902 8.59983 21.6203 9.53029 22.0737 10.5903C22.5272 11.6503 22.751 12.781 22.751 14C22.751 15.219 22.5272 16.3497 22.0737 17.4097H22.0796ZM15.7902 8.58216C15.2602 8.23472 14.6654 8.06394 14.0059 8.06394C13.3463 8.06394 12.7515 8.23472 12.2156 8.58216C11.6797 8.92961 11.2557 9.38895 10.9377 9.96607C10.6197 10.5432 10.4666 11.1792 10.4725 11.8682C10.4784 12.6043 10.6374 13.2639 10.9495 13.8469C11.2616 14.4299 11.6856 14.8892 12.2156 15.2308C12.7456 15.5723 13.3404 15.7431 14 15.749C14.6595 15.7549 15.2543 15.59 15.7902 15.2485C16.3261 14.9069 16.7501 14.4417 17.0622 13.8528C17.3743 13.2639 17.5333 12.5984 17.5333 11.8682C17.5333 11.1733 17.3743 10.5373 17.0622 9.96607C16.7501 9.39484 16.3202 8.92961 15.7902 8.58216V8.58216Z" fill="#757575"/>
</svg>
